[img]http://img217.imageshack.us/img217/4581/redhx.jpg[/img]
[code]
Red Riding Hood 2011 R5 LiNE XViD - IMAGiNE

Ripper ...........: IMAGiNE       IMDB Rating.......: 4.9/10                             
Video Codec.......: XVID          Release Date......: 25/05/11
Audio Codec.......: MP3           Theatre Date......: 11/03/11
Audio Bitrate.....: 128           Runtime.......: 1h 39mn
Subtitles.........: NIL           Language..........: ENGLISH
Resolution......: 720 x 304       IMDb URL..........: http://www.imdb.com/title/tt1486185/

DETAILS:

Video
ID                               : 0
Format                           : MPEG-4 Visual
Format profile                   : Advanced Simple@L5
Format settings, BVOP            : 2
Format settings, QPel            : No
Format settings, GMC             : No warppoints
Format settings, Matrix          : Default (MPEG)
Muxing mode                      : Packed bitstream
Codec ID                         : XVID
Codec ID/Hint                    : XviD
Duration                         : 1h 39mn
Bit rate                         : 1 827 Kbps
Width                            : 720 pixel
Height                           : 304 pixels
Display aspect ratio             : 2.35:
Frame rate                       : 29.970 fps
Color space                      : YUV
Chroma subsampling               : 4:2:0
Bit depth                        : 8 bits
Scan type                        : Progressive
Compression mode                 : Lossy
Bits/(Pixel*Frame)               : 0.279
Stream size                      : 1.27 GiB (93%)
Writing library                  : XviD 61

Audio
ID                               : 1

Format                           : MPEG Audio
Format version                   : Version 1
Format profile                   : Layer 3
Mode                             : Joint stereo
Mode extension                   : MS Stereo
Codec ID                         : 55
Codec ID/Hint                    : MP3
Duration                         : 1h 39mn
Bit rate mode                    : Constant
Bit rate                         : 128 Kbps
Channel(s)                       : 2 channels
Sampling rate                    : 44.1 KHz
Compression mode                 : Lossy
Stream size                      : 91.4 MiB (7%)
Alignment                        : Split accross interleaves
Interleave, duration             : 33 ms (1.00 video frame)
Writing library                  : LAME3.98r

Plot:
Set in a medieval village that is haunted by a werewolf, a young girl falls for an orphaned woodcutter, much to her family's displeasure.

SOURCES:
VIDEO: ............. KiNOPARK 
AUDIO: ............. KiNOPARK  Thanx Mate 

NOTES:
IMAGiNE bringing you another release..........
Red Riding Hood.....

Alright here we have yet another ntsc 'R5' so although it isnt PAL we still opted for the R5 tag as it had no english track Anyhow source was pretty good so not much was needed here.....
Made a script to crop rotate and so on.....

Audio is nice LiNE we synced filtered and muxed to our encode Reguardless of what you call it, its a damn fine release here

Enjoy Folks!
[/code]
Screens:
[img]http://img28.imageshack.us/img28/3049/80158630.jpg[/img]
[img]http://img857.imageshack.us/img857/1329/62810392.jpg[/img]
[img]http://img825.imageshack.us/img825/8110/95234520.jpg[/img]
[img]http://img851.imageshack.us/img851/1171/98388568.jpg[/img]
[img]http://img853.imageshack.us/img853/316/65692803.jpg[/img]